<svg width="1046" height="1046" viewBox="0 0 1046 1046" fill="none" xmlns="http://www.w3.org/2000/svg">
<g clip-path="url(#clip0_120_760)">
<path d="M910.478 0H134.662C60.2813 0 0 60.2813 0 134.662V910.48C0 984.859 60.2813 1045.14 134.662 1045.14H910.48C984.859 1045.14 1045.14 984.859 1045.14 910.478V134.662C1045.14 60.2813 984.859 0 910.478 0ZM126.689 870.928H63.3432V807.585H126.686L126.689 870.928ZM126.689 712.602H63.3432V649.259H126.686L126.689 712.602ZM126.689 554.243H63.3432V490.899H126.686L126.689 554.243ZM126.689 395.884H63.3432V332.54H126.686L126.689 395.884ZM126.689 237.555H63.3432V174.212H126.686L126.689 237.555ZM190.032 126.689H498.809V290.884C389.153 301.984 302.017 389.153 290.886 498.84H190.032V126.689ZM498.807 918.454H190.032V546.3H290.884C302.015 655.987 389.153 743.158 498.807 754.256V918.454ZM402.708 642.432C371.96 611.685 353.047 569.489 353.014 522.57C353.047 475.653 371.96 433.456 402.708 402.708C433.456 371.96 475.651 353.047 522.57 353.014C569.487 353.047 611.685 371.96 642.432 402.708C673.18 433.456 692.093 475.651 692.126 522.57C692.093 569.487 673.18 611.685 642.432 642.432C611.685 673.18 569.487 692.093 522.57 692.126C475.653 692.093 433.456 673.178 402.708 642.432ZM855.108 918.454H546.3V754.256C655.987 743.156 743.125 655.987 754.256 546.3H855.108V918.454ZM855.108 498.84H754.256C743.125 389.153 655.987 301.982 546.3 290.884V126.689H855.108V498.84ZM981.797 870.928H918.454V807.585H981.797V870.928ZM981.797 712.602H918.454V649.259H981.797V712.602ZM981.797 554.243H918.454V490.899H981.797V554.243ZM981.797 395.884H918.454V332.54H981.797V395.884ZM981.797 237.555H918.454V174.212H981.797V237.555Z" fill="#BA181B"/>
<path d="M566.65 515.489V514.946C584.511 505.538 593.76 490.993 593.76 474.726C593.76 443.374 567.733 421.142 522.411 421.142C483.149 421.142 456.387 439.1 451.029 462.479C450.678 464.201 451.762 465.604 453.868 465.892L484.232 471.601C486.337 471.889 487.772 471.313 488.507 469.623C492.781 457.63 503.114 449.657 520.976 449.657C541.325 449.657 553.444 460.503 553.444 475.876C553.444 492.971 539.537 504.102 518.104 504.102H508.503C506.334 504.102 504.898 505.252 504.898 506.942V529.459C504.898 531.182 506.334 532.329 508.503 532.329H518.806C542.728 532.329 558.452 544.322 558.452 563.969C558.452 580.492 545.247 592.77 522.762 592.77C502.796 592.77 490.993 583.647 486.019 572.261C485.253 570.538 483.5 569.965 481.714 570.253L450.68 575.962C448.51 576.536 447.426 577.94 447.81 579.663C455.305 606.2 484.937 621.317 522.764 621.317C566.3 621.317 598.802 597.906 598.802 562.567C598.8 537.177 580.939 520.337 566.65 515.489Z" fill="#BA181B"/>
</g>
<defs>
<clipPath id="clip0_120_760">
<rect width="1045.14" height="1045.14" fill="white"/>
</clipPath>
</defs>
</svg>
