<svg width="260" height="260" viewBox="0 0 260 260" fill="none" xmlns="http://www.w3.org/2000/svg">
<g clip-path="url(#clip0_120_764)">
<path d="M226.134 0H33.4458C14.972 0 0 14.972 0 33.4458V226.135C0 244.608 14.972 259.58 33.4458 259.58H226.135C244.608 259.58 259.58 244.608 259.58 226.134V33.4458C259.58 14.972 244.608 0 226.134 0ZM31.4655 216.311H15.7325V200.579H31.4649L31.4655 216.311ZM31.4655 176.988H15.7325V161.255H31.4649L31.4655 176.988ZM31.4655 137.656H15.7325V121.924H31.4649L31.4655 137.656ZM31.4655 98.325H15.7325V82.5926H31.4649L31.4655 98.325ZM31.4655 59.0012H15.7325V43.2687H31.4649L31.4655 59.0012ZM47.1979 31.4655H123.889V72.2464C96.6535 75.0034 75.0115 96.6535 72.2469 123.896H47.1979V31.4655ZM123.888 228.115H47.1979V135.684H72.2464C75.011 162.926 96.6535 184.577 123.888 187.334V228.115ZM100.02 159.56C92.3831 151.923 87.6858 141.443 87.6777 129.79C87.6858 118.137 92.3831 107.657 100.02 100.02C107.657 92.3831 118.137 87.6858 129.79 87.6777C141.443 87.6858 151.923 92.3831 159.56 100.02C167.197 107.657 171.894 118.137 171.902 129.79C171.894 141.443 167.197 151.923 159.56 159.56C151.923 167.197 141.443 171.894 129.79 171.902C118.137 171.894 107.657 167.196 100.02 159.56ZM212.382 228.115H135.684V187.334C162.926 184.577 184.569 162.926 187.334 135.684H212.382V228.115ZM212.382 123.896H187.334C184.569 96.6535 162.926 75.0029 135.684 72.2464V31.4655H212.382V123.896ZM243.848 216.311H228.115V200.579H243.848V216.311ZM243.848 176.988H228.115V161.255H243.848V176.988ZM243.848 137.656H228.115V121.924H243.848V137.656ZM243.848 98.325H228.115V82.5926H243.848V98.325ZM243.848 59.0012H228.115V43.2687H243.848V59.0012Z" fill="#BA181B"/>
<path d="M140.738 128.031V127.896C145.174 125.56 147.471 121.947 147.471 117.907C147.471 110.12 141.007 104.599 129.751 104.599C119.999 104.599 113.352 109.059 112.022 114.865C111.934 115.293 112.204 115.641 112.727 115.713L120.268 117.131C120.791 117.202 121.147 117.059 121.33 116.64C122.392 113.661 124.958 111.681 129.394 111.681C134.448 111.681 137.458 114.374 137.458 118.193C137.458 122.439 134.004 125.203 128.681 125.203H126.296C125.757 125.203 125.401 125.489 125.401 125.909V131.501C125.401 131.929 125.757 132.214 126.296 132.214H128.855C134.797 132.214 138.702 135.193 138.702 140.072C138.702 144.176 135.422 147.226 129.838 147.226C124.879 147.226 121.947 144.96 120.712 142.132C120.522 141.704 120.086 141.561 119.643 141.633L111.935 143.051C111.396 143.193 111.127 143.542 111.222 143.97C113.084 150.561 120.443 154.316 129.838 154.316C140.651 154.316 148.724 148.501 148.724 139.724C148.723 133.418 144.287 129.235 140.738 128.031Z" fill="#BA181B"/>
</g>
<defs>
<clipPath id="clip0_120_764">
<rect width="259.58" height="259.58" fill="white"/>
</clipPath>
</defs>
</svg>
